<svg xmlns="http://www.w3.org/2000/svg" xmlns:xlink="http://www.w3.org/1999/xlink" width="40" zoomAndPan="magnify" viewBox="0 0 30 30.000001" height="40" preserveAspectRatio="xMidYMid meet" version="1.0"><defs><clipPath id="b3a2096dcd"><path d="M 8 4.640625 L 22 4.640625 L 22 10 L 8 10 Z M 8 4.640625 " clip-rule="nonzero"/></clipPath><clipPath id="328d42a355"><path d="M 4.148438 9.175781 L 27.433594 9.175781 L 27.433594 16.558594 L 4.148438 16.558594 Z M 4.148438 9.175781 " clip-rule="nonzero"/></clipPath><clipPath id="2974399dd2"><path d="M 7.878906 16.515625 L 23.46875 16.515625 L 23.46875 24.238281 L 7.878906 24.238281 Z M 7.878906 16.515625 " clip-rule="nonzero"/></clipPath><clipPath id="70b5e79fb5"><path d="M 2.773438 16 L 9 16 L 9 22 L 2.773438 22 Z M 2.773438 16 " clip-rule="nonzero"/></clipPath></defs><g clip-path="url(#b3a2096dcd)"><path fill="#248cbb" d="M 19.082031 4.742188 C 18.878906 4.671875 18.980469 5.90625 17.640625 6.554688 C 16.917969 6.90625 16.726562 6.886719 16.628906 7.476562 C 16.519531 8.136719 16.042969 8.621094 15.769531 8.597656 C 15.667969 8.585938 15.675781 8.496094 15.515625 8.445312 C 15.226562 8.355469 15.027344 8.605469 14.785156 8.523438 C 14.648438 8.476562 14.660156 8.34375 14.503906 8.222656 C 14.25 8.023438 13.941406 8.132812 13.570312 7.675781 C 13.152344 7.164062 13.324219 6.511719 12.9375 6.382812 C 12.742188 6.316406 12.414062 6.667969 12.457031 6.457031 C 12.558594 5.972656 11.585938 5.5625 11.371094 4.890625 C 11.28125 4.613281 10.914062 5.199219 10.558594 5.113281 C 10.273438 5.042969 10.195312 4.472656 10.003906 4.691406 C 9.882812 4.828125 9.660156 5.25 9.015625 5.386719 C 8.890625 5.414062 9.015625 6.078125 8.992188 6.132812 C 8.933594 6.269531 9.394531 6.175781 9.507812 6.253906 C 9.640625 6.347656 9.394531 6.5 9.421875 6.707031 C 9.507812 7.367188 11.542969 7.339844 11.242188 8.074219 C 11.109375 8.40625 10.894531 8.945312 10.890625 9.070312 C 10.882812 9.175781 10.714844 9.027344 10.558594 9.070312 C 10.476562 9.089844 10.421875 9.136719 10.378906 9.183594 L 21.996094 9.183594 C 21.984375 9.152344 21.972656 9.125 21.964844 9.09375 C 21.46875 7.140625 19.519531 4.886719 19.082031 4.742188 " fill-opacity="1" fill-rule="nonzero"/></g><path fill="#248cbb" d="M 9.167969 8.695312 C 8.644531 8.605469 7.390625 8.804688 6.867188 8.125 C 6.765625 7.992188 7.230469 7.675781 7.019531 7.675781 C 6.816406 7.675781 5.722656 6.925781 5.019531 7.054688 C 4.671875 7.117188 4.035156 7.832031 3.859375 8.023438 C 3.59375 8.308594 4.539062 8.550781 4.792969 8.84375 C 4.90625 8.976562 4.648438 9.082031 4.425781 9.183594 L 9.871094 9.183594 C 9.691406 9.003906 9.472656 8.746094 9.167969 8.695312 " fill-opacity="1" fill-rule="nonzero"/><g clip-path="url(#328d42a355)"><path fill="#d01f26" d="M 14.082031 9.515625 C 15.132812 9.46875 16.039062 9.90625 16.6875 10.617188 C 16.753906 10.691406 16.71875 10.746094 16.640625 10.683594 C 16.152344 10.300781 15.503906 10.132812 14.828125 10.167969 C 13.550781 10.234375 12.390625 11.363281 12.296875 12.632812 C 12.179688 14.199219 13.421875 15.507812 14.96875 15.507812 C 15.613281 15.507812 16.21875 15.332031 16.679688 14.953125 C 16.773438 14.875 16.839844 14.921875 16.761719 15.015625 C 16.144531 15.738281 15.265625 16.230469 14.238281 16.230469 C 12.324219 16.230469 10.785156 14.640625 10.875 12.710938 C 10.953125 11.050781 12.417969 9.589844 14.082031 9.515625 Z M 17.523438 11.160156 L 17.875 12.0625 L 18.710938 11.710938 L 18.378906 12.597656 L 19.234375 12.875 L 18.367188 13.207031 L 18.730469 14.0625 L 17.863281 13.699219 L 17.542969 14.582031 L 17.148438 13.699219 L 16.316406 14.089844 L 16.695312 13.226562 L 15.820312 12.871094 L 16.726562 12.546875 L 16.316406 11.722656 L 17.171875 12.0625 Z M 10.179688 9.367188 C 10.085938 9.390625 9.988281 9.304688 9.871094 9.183594 L 4.425781 9.183594 C 4.273438 9.253906 4.140625 9.324219 4.160156 9.390625 C 4.203125 9.53125 4.605469 9.328125 5.019531 9.566406 C 5.417969 9.796875 6.171875 10.15625 6.386719 10.363281 C 6.527344 10.496094 6.492188 10.871094 6.109375 10.984375 C 4.96875 11.320312 5.8125 11.746094 5.730469 12.453125 C 5.664062 13 7.777344 13.308594 8.003906 13.820312 C 8.214844 14.285156 7.878906 14.972656 7.449219 15.210938 C 7.023438 15.453125 6.578125 14.800781 6.460938 15.359375 C 6.441406 15.460938 7.164062 15.402344 7.273438 15.859375 C 7.398438 16.398438 7.613281 16.449219 7.90625 16.558594 L 23.246094 16.558594 C 22.8125 15.628906 23.519531 15.988281 23.128906 15.1875 C 23.183594 14.292969 23.699219 13.835938 24.445312 13.296875 C 24.679688 13.128906 24.730469 12.867188 25.480469 13.074219 C 25.839844 13.171875 25.832031 12.867188 26.0625 12.800781 C 26.757812 12.597656 27.378906 13.242188 27.433594 13.148438 C 27.476562 13.066406 26.992188 12.609375 26.242188 11.980469 C 25.820312 11.628906 25.753906 11.527344 25.53125 11.480469 C 25.085938 11.386719 25.109375 11.824219 24.585938 11.765625 C 24.238281 11.730469 23.703125 11.429688 23.507812 11.15625 C 23.328125 10.898438 23.511719 10.574219 23.308594 10.4375 C 22.753906 10.0625 22.167969 9.609375 21.996094 9.183594 L 10.378906 9.183594 C 10.308594 9.261719 10.265625 9.34375 10.179688 9.367188 " fill-opacity="1" fill-rule="nonzero"/></g><g clip-path="url(#2974399dd2)"><path fill="#287939" d="M 8.992188 17.574219 C 9.230469 17.984375 9.546875 16.902344 10.773438 17.800781 C 10.945312 17.921875 9.777344 18.25 9.777344 18.644531 C 9.773438 19.113281 11.117188 19.449219 11.066406 19.640625 C 11.03125 19.769531 9.804688 19.65625 10.15625 19.839844 C 10.539062 20.035156 10.648438 21.226562 10.636719 21.679688 C 10.632812 21.824219 11.101562 21.054688 11.976562 20.210938 C 12.519531 19.601562 12.480469 20.722656 13.050781 19.378906 C 14.644531 18.558594 13.851562 18.523438 14.328125 18.269531 C 15.832031 17.476562 16.777344 16.652344 16.957031 16.878906 C 17.441406 17.199219 18.28125 18.214844 18.628906 18.570312 C 18.984375 18.933594 17.609375 19.125 17.617188 19.515625 C 17.621094 19.925781 18.613281 20.117188 18.578125 20.511719 C 18.566406 20.625 18.476562 20.675781 18.171875 20.90625 C 17.539062 21.390625 17.082031 20.902344 17.1875 21.804688 C 17.222656 22.125 18.050781 21.335938 18.394531 22.765625 C 18.492188 23.175781 18.914062 22.914062 19.195312 23.023438 C 19.71875 23.21875 19.792969 24.5625 20.121094 24.164062 C 20.304688 23.941406 20.59375 23.71875 20.929688 23.84375 C 21.492188 24.050781 20.730469 22.765625 20.878906 21.679688 C 20.921875 21.363281 21.085938 21.5 21.21875 20.933594 C 21.488281 19.804688 21.246094 19.128906 21.460938 19.066406 C 21.734375 18.988281 21.910156 19.992188 22.160156 19.945312 C 22.777344 19.839844 22.355469 18.738281 22.675781 18.59375 C 22.921875 18.484375 23.347656 18.992188 23.433594 18.917969 C 23.550781 18.816406 22.636719 17.972656 22.851562 17.226562 C 22.9375 16.921875 23.375 16.949219 23.257812 16.582031 C 23.253906 16.574219 23.25 16.566406 23.246094 16.558594 L 7.90625 16.558594 C 8.195312 16.664062 8.558594 16.832031 8.992188 17.574219 " fill-opacity="1" fill-rule="nonzero"/></g><path fill="#ffffff" d="M 14.238281 16.230469 C 15.265625 16.230469 16.144531 15.738281 16.761719 15.015625 C 16.839844 14.921875 16.773438 14.875 16.679688 14.953125 C 16.21875 15.332031 15.613281 15.507812 14.96875 15.507812 C 13.421875 15.507812 12.179688 14.199219 12.296875 12.632812 C 12.390625 11.363281 13.550781 10.234375 14.828125 10.167969 C 15.503906 10.132812 16.152344 10.300781 16.640625 10.683594 C 16.71875 10.746094 16.753906 10.691406 16.6875 10.617188 C 16.039062 9.90625 15.132812 9.46875 14.082031 9.515625 C 12.417969 9.589844 10.953125 11.050781 10.875 12.710938 C 10.785156 14.640625 12.324219 16.230469 14.238281 16.230469 " fill-opacity="1" fill-rule="nonzero"/><path fill="#ffffff" d="M 16.726562 12.546875 L 15.820312 12.871094 L 16.695312 13.226562 L 16.316406 14.089844 L 17.148438 13.699219 L 17.542969 14.582031 L 17.863281 13.699219 L 18.730469 14.0625 L 18.367188 13.207031 L 19.234375 12.875 L 18.378906 12.597656 L 18.710938 11.710938 L 17.875 12.0625 L 17.523438 11.160156 L 17.171875 12.0625 L 16.316406 11.722656 L 16.726562 12.546875 " fill-opacity="1" fill-rule="nonzero"/><g clip-path="url(#70b5e79fb5)"><path fill="#287939" d="M 8.839844 21.777344 C 9.054688 21.902344 9.011719 21.304688 8.511719 20.460938 C 8.109375 19.785156 8.355469 19.550781 8.234375 19.316406 C 8.132812 19.121094 8.011719 19.128906 7.367188 18.878906 C 7.097656 18.773438 7.542969 18.324219 7.460938 17.996094 C 7.382812 17.671875 6.96875 17.507812 6.589844 17.648438 C 6.214844 17.789062 5.957031 18.480469 5.855469 18.195312 C 5.714844 17.8125 5.199219 18.046875 5.171875 17.722656 C 5.164062 17.589844 5.105469 17.507812 5.019531 17.476562 C 4.855469 17.410156 4.667969 17.679688 4.566406 17.625 C 4.46875 17.570312 4.621094 17.316406 4.539062 17.003906 C 4.484375 16.78125 4.304688 16.523438 4.058594 16.457031 C 3.898438 16.410156 4.089844 16.675781 3.566406 16.816406 C 3.15625 16.929688 2.828125 16.726562 2.796875 16.804688 C 2.71875 16.980469 3.105469 17.171875 3.402344 17.699219 C 3.585938 18.027344 3.414062 18.371094 3.742188 18.53125 C 4.1875 18.75 4.320312 19.203125 4.464844 19.738281 C 4.558594 20.09375 4.945312 19.726562 5.210938 19.902344 C 5.742188 20.25 5.605469 20.839844 5.78125 21.007812 C 6.316406 21.523438 8.625 21.65625 8.839844 21.777344 " fill-opacity="1" fill-rule="nonzero"/></g><path fill="#287939" d="M 22.214844 20.496094 L 22.035156 20.683594 C 22.003906 20.714844 22.011719 20.761719 22.042969 20.785156 L 22.160156 20.867188 C 22.203125 20.894531 22.257812 20.875 22.269531 20.828125 L 22.332031 20.558594 C 22.347656 20.492188 22.265625 20.445312 22.214844 20.496094 " fill-opacity="1" fill-rule="nonzero"/></svg>