<svg xmlns="http://www.w3.org/2000/svg" xmlns:xlink="http://www.w3.org/1999/xlink" width="40" zoomAndPan="magnify" viewBox="0 0 30 30.000001" height="40" preserveAspectRatio="xMidYMid meet" version="1.0"><defs><clipPath id="ccf686de8f"><path d="M 2.734375 2.902344 L 27.410156 2.902344 L 27.410156 27.582031 L 2.734375 27.582031 Z M 2.734375 2.902344 " clip-rule="nonzero"/></clipPath><clipPath id="794087f702"><path d="M 3 3 L 27 3 L 27 27.582031 L 3 27.582031 Z M 3 3 " clip-rule="nonzero"/></clipPath></defs><g clip-path="url(#ccf686de8f)"><path fill="#ffffff" d="M 15.074219 2.902344 C 14.78125 2.902344 14.488281 2.914062 14.199219 2.933594 C 13.789062 2.964844 13.378906 3.011719 12.976562 3.082031 C 12.570312 3.152344 12.167969 3.242188 11.773438 3.351562 C 11.375 3.464844 10.984375 3.59375 10.601562 3.742188 C 10.21875 3.890625 9.84375 4.058594 9.476562 4.246094 C 9.109375 4.433594 8.753906 4.636719 8.40625 4.859375 C 8.058594 5.082031 7.726562 5.320312 7.402344 5.578125 C 7.082031 5.832031 6.769531 6.105469 6.476562 6.390625 C 6.179688 6.675781 5.902344 6.980469 5.636719 7.292969 C 5.371094 7.609375 5.121094 7.933594 4.890625 8.273438 C 4.65625 8.613281 4.441406 8.964844 4.246094 9.328125 C 4.046875 9.6875 3.867188 10.058594 3.707031 10.4375 C 3.546875 10.816406 3.40625 11.203125 3.285156 11.59375 C 3.164062 11.988281 3.0625 12.386719 2.980469 12.789062 C 2.898438 13.195312 2.835938 13.601562 2.796875 14.011719 C 2.753906 14.417969 2.734375 14.832031 2.734375 15.242188 C 2.734375 15.53125 2.742188 15.824219 2.765625 16.113281 C 2.792969 16.523438 2.84375 16.933594 2.914062 17.339844 C 2.984375 17.746094 3.074219 18.144531 3.183594 18.542969 C 3.292969 18.9375 3.421875 19.328125 3.574219 19.714844 C 3.722656 20.097656 3.890625 20.472656 4.074219 20.839844 C 4.261719 21.207031 4.46875 21.5625 4.691406 21.910156 C 4.914062 22.253906 5.152344 22.589844 5.40625 22.910156 C 5.664062 23.234375 5.933594 23.542969 6.222656 23.839844 C 6.507812 24.132812 6.808594 24.414062 7.125 24.679688 C 7.4375 24.945312 7.765625 25.191406 8.105469 25.425781 C 8.445312 25.65625 8.796875 25.871094 9.15625 26.070312 C 9.519531 26.265625 9.890625 26.445312 10.265625 26.605469 C 10.648438 26.765625 11.035156 26.90625 11.425781 27.03125 C 11.820312 27.152344 12.21875 27.253906 12.621094 27.335938 C 13.023438 27.417969 13.429688 27.476562 13.839844 27.519531 C 14.25 27.558594 14.660156 27.582031 15.074219 27.582031 C 15.363281 27.582031 15.65625 27.570312 15.945312 27.550781 C 16.355469 27.519531 16.765625 27.472656 17.167969 27.402344 C 17.574219 27.332031 17.976562 27.242188 18.375 27.132812 C 18.769531 27.019531 19.160156 26.890625 19.542969 26.742188 C 19.925781 26.59375 20.300781 26.425781 20.667969 26.238281 C 21.035156 26.050781 21.394531 25.847656 21.738281 25.625 C 22.085938 25.402344 22.421875 25.164062 22.742188 24.90625 C 23.066406 24.652344 23.375 24.378906 23.667969 24.09375 C 23.964844 23.808594 24.246094 23.503906 24.507812 23.191406 C 24.773438 22.875 25.023438 22.546875 25.257812 22.207031 C 25.488281 21.871094 25.703125 21.519531 25.902344 21.15625 C 26.097656 20.796875 26.277344 20.425781 26.4375 20.046875 C 26.597656 19.667969 26.738281 19.28125 26.859375 18.886719 C 26.980469 18.496094 27.082031 18.097656 27.164062 17.691406 C 27.246094 17.289062 27.308594 16.882812 27.347656 16.472656 C 27.390625 16.0625 27.410156 15.652344 27.410156 15.242188 C 27.410156 14.949219 27.402344 14.660156 27.378906 14.367188 C 27.351562 13.957031 27.300781 13.550781 27.230469 13.144531 C 27.160156 12.738281 27.070312 12.335938 26.960938 11.941406 C 26.851562 11.546875 26.722656 11.15625 26.574219 10.769531 C 26.421875 10.386719 26.253906 10.011719 26.070312 9.644531 C 25.882812 9.277344 25.675781 8.921875 25.457031 8.574219 C 25.234375 8.230469 24.992188 7.894531 24.738281 7.570312 C 24.480469 7.25 24.210938 6.941406 23.921875 6.644531 C 23.636719 6.351562 23.335938 6.070312 23.019531 5.804688 C 22.707031 5.539062 22.378906 5.289062 22.039062 5.058594 C 21.699219 4.824219 21.347656 4.609375 20.988281 4.414062 C 20.628906 4.214844 20.257812 4.039062 19.878906 3.878906 C 19.5 3.71875 19.113281 3.574219 18.71875 3.453125 C 18.324219 3.332031 17.925781 3.230469 17.523438 3.148438 C 17.121094 3.066406 16.714844 3.007812 16.304688 2.964844 C 15.894531 2.925781 15.484375 2.902344 15.074219 2.902344 Z M 15.074219 2.902344 " fill-opacity="1" fill-rule="nonzero"/><path fill="#ff0000" d="M 15.074219 2.902344 C 14.78125 2.902344 14.488281 2.914062 14.199219 2.933594 C 13.953125 2.957031 13.707031 2.988281 13.460938 3.023438 L 13.460938 12.785156 L 2.980469 12.785156 C 2.980469 12.785156 2.980469 12.789062 2.980469 12.789062 C 2.898438 13.195312 2.835938 13.601562 2.796875 14.011719 C 2.753906 14.417969 2.734375 14.832031 2.734375 15.242188 C 2.734375 15.53125 2.742188 15.824219 2.765625 16.113281 C 2.792969 16.523438 2.84375 16.933594 2.914062 17.339844 C 2.949219 17.507812 2.984375 17.679688 3.027344 17.847656 L 13.460938 17.847656 L 13.460938 27.460938 C 13.585938 27.484375 13.714844 27.5 13.839844 27.519531 C 14.25 27.558594 14.660156 27.582031 15.074219 27.582031 C 15.363281 27.582031 15.65625 27.570312 15.945312 27.550781 C 16.183594 27.527344 16.421875 27.5 16.660156 27.464844 L 16.660156 17.847656 L 27.125 17.847656 C 27.140625 17.796875 27.152344 17.746094 27.164062 17.691406 C 27.246094 17.289062 27.308594 16.882812 27.347656 16.472656 C 27.390625 16.066406 27.410156 15.652344 27.410156 15.242188 C 27.410156 14.949219 27.402344 14.660156 27.378906 14.367188 C 27.351562 13.957031 27.300781 13.550781 27.230469 13.144531 C 27.207031 13.023438 27.179688 12.902344 27.152344 12.785156 L 16.660156 12.785156 L 16.660156 3.019531 C 16.542969 3 16.421875 2.980469 16.304688 2.964844 C 15.894531 2.925781 15.484375 2.902344 15.074219 2.902344 Z M 23.0625 5.84375 L 17.761719 11.039062 L 19.632812 11.039062 L 24.0625 6.804688 C 24.019531 6.75 23.972656 6.699219 23.921875 6.644531 C 23.648438 6.363281 23.363281 6.097656 23.0625 5.84375 Z M 6.125 6.769531 C 5.957031 6.9375 5.792969 7.113281 5.636719 7.292969 C 5.480469 7.484375 5.335938 7.675781 5.191406 7.875 L 8.503906 11.039062 L 10.59375 11.039062 Z M 12.359375 19.589844 L 10.40625 19.589844 L 6.101562 23.703125 C 6.140625 23.75 6.179688 23.792969 6.222656 23.839844 C 6.507812 24.132812 6.808594 24.414062 7.121094 24.675781 Z M 19.542969 19.589844 L 23.941406 23.796875 C 24.140625 23.601562 24.328125 23.398438 24.507812 23.191406 C 24.636719 23.03125 24.761719 22.867188 24.882812 22.699219 L 21.632812 19.589844 Z M 19.542969 19.589844 " fill-opacity="1" fill-rule="nonzero"/></g><g clip-path="url(#794087f702)"><path fill="#000080" d="M 17.757812 3.207031 L 17.757812 9.953125 L 22.523438 5.425781 C 22.367188 5.300781 22.203125 5.175781 22.039062 5.058594 C 21.699219 4.824219 21.347656 4.609375 20.988281 4.414062 C 20.628906 4.214844 20.257812 4.039062 19.878906 3.878906 C 19.5 3.71875 19.113281 3.574219 18.71875 3.453125 C 18.402344 3.359375 18.082031 3.277344 17.757812 3.207031 Z M 12.351562 3.222656 C 12.15625 3.261719 11.964844 3.304688 11.773438 3.351562 C 11.375 3.464844 10.984375 3.59375 10.601562 3.742188 C 10.21875 3.890625 9.84375 4.058594 9.476562 4.246094 C 9.109375 4.433594 8.753906 4.636719 8.40625 4.859375 C 8.128906 5.042969 7.859375 5.234375 7.597656 5.4375 L 12.351562 9.953125 Z M 25.265625 8.308594 L 22.40625 11.035156 L 26.660156 11.035156 C 26.632812 10.949219 26.601562 10.859375 26.574219 10.769531 C 26.421875 10.386719 26.253906 10.011719 26.070312 9.644531 C 25.882812 9.277344 25.675781 8.921875 25.457031 8.574219 C 25.394531 8.484375 25.328125 8.394531 25.265625 8.308594 Z M 4.851562 8.335938 C 4.632812 8.65625 4.429688 8.988281 4.246094 9.328125 C 4.046875 9.6875 3.867188 10.058594 3.707031 10.4375 C 3.628906 10.636719 3.558594 10.835938 3.488281 11.035156 L 7.679688 11.035156 Z M 3.523438 19.566406 C 3.539062 19.617188 3.554688 19.664062 3.574219 19.714844 C 3.722656 20.097656 3.890625 20.472656 4.074219 20.839844 C 4.261719 21.207031 4.46875 21.5625 4.691406 21.910156 C 4.761719 22.011719 4.832031 22.113281 4.90625 22.210938 L 7.679688 19.566406 Z M 22.40625 19.566406 L 25.222656 22.253906 C 25.234375 22.238281 25.246094 22.222656 25.257812 22.207031 C 25.488281 21.871094 25.703125 21.519531 25.902344 21.15625 C 26.097656 20.796875 26.277344 20.425781 26.4375 20.046875 C 26.5 19.886719 26.558594 19.726562 26.613281 19.566406 Z M 12.351562 20.585938 L 7.632812 25.066406 C 7.785156 25.1875 7.945312 25.308594 8.105469 25.425781 C 8.445312 25.65625 8.796875 25.871094 9.15625 26.070312 C 9.519531 26.265625 9.890625 26.445312 10.265625 26.605469 C 10.648438 26.765625 11.035156 26.90625 11.425781 27.03125 C 11.730469 27.121094 12.039062 27.199219 12.351562 27.265625 Z M 17.757812 20.585938 L 17.757812 27.269531 C 17.964844 27.226562 18.167969 27.183594 18.375 27.132812 C 18.769531 27.019531 19.160156 26.890625 19.542969 26.742188 C 19.925781 26.59375 20.300781 26.425781 20.667969 26.238281 C 21.035156 26.050781 21.394531 25.847656 21.738281 25.625 C 21.996094 25.453125 22.25 25.273438 22.496094 25.082031 Z M 17.757812 20.585938 " fill-opacity="1" fill-rule="evenodd"/></g></svg>