<svg width="97" height="40" viewBox="0 0 97 40" fill="none" xmlns="http://www.w3.org/2000/svg">
<path d="M22.4643 18.2186C23.1556 19.0853 24.309 19.8233 25.6996 19.8233C28.625 19.8233 30.7996 17.2726 30.7996 14.0053C30.7996 10.738 28.625 8.08997 25.6996 8.08997C24.3096 8.08997 23.3076 8.5973 22.6156 9.4213V3.66797H20.1816V19.6026H22.465V18.2186H22.4643ZM22.615 12.156C23.093 10.9826 24.0463 10.1846 25.249 10.1846C26.997 10.1846 28.3163 11.8666 28.3163 13.9413C28.3163 16.016 26.997 17.698 25.249 17.698C24.0456 17.698 23.093 16.9006 22.615 15.7266C22.3996 15.196 22.281 14.5873 22.281 13.9406C22.281 13.2953 22.3996 12.6866 22.615 12.156Z" fill="#009FF7"/>
<path d="M35.2885 8.27246H32.8545V19.6025H35.2885V8.27246Z" fill="#009FF7"/>
<path d="M34.0324 6.41977C34.8951 6.41977 35.5951 5.72043 35.5951 4.8571C35.5951 3.99443 34.8957 3.29443 34.0324 3.29443C33.1697 3.29443 32.4697 3.99377 32.4697 4.8571C32.4697 5.72043 33.1697 6.41977 34.0324 6.41977Z" fill="#009FF7"/>
<path d="M45.6592 8.08663C45.6592 8.08663 44.6405 7.95329 43.5819 8.51329C42.2992 9.19129 41.4132 10.2426 40.7865 11.3913V8.27263H38.3525V19.6026H40.7865V17.414C40.7872 17.394 40.7879 17.374 40.7879 17.354C40.7879 15.17 40.7959 12.8166 43.3112 11.21C44.2059 10.6386 45.5272 10.5633 45.6592 10.5573V8.08663Z" fill="#009FF7"/>
<path d="M91.7868 11.6578C92.8442 11.0238 94.0035 10.6645 95.0282 10.5611L95.0275 8.08512C91.7128 8.52179 89.6808 10.4105 88.4408 12.4131V3.66846H86.0068V19.6031H88.4408V17.6265C88.4455 17.5751 88.4482 17.5211 88.4482 17.4631C88.4482 15.5805 89.1295 14.1038 90.1268 13.0065L93.4122 19.6038H96.0955L91.7868 11.6578Z" fill="#009FF7"/>
<path d="M67.9565 9.41581C67.2645 8.59181 66.2625 8.08447 64.8725 8.08447C61.9471 8.08447 59.7725 10.7325 59.7725 13.9998C59.7725 17.2671 61.9471 19.8178 64.8725 19.8178C66.2625 19.8178 67.4158 19.0798 68.1071 18.2131L68.1251 19.6031H70.3905V8.27247H67.9558V9.41581H67.9565ZM67.9565 15.7218C67.4785 16.8951 66.5251 17.6931 65.3225 17.6931C63.5745 17.6931 62.2551 16.0111 62.2551 13.9365C62.2551 11.8618 63.5745 10.1798 65.3225 10.1798C66.5251 10.1798 67.4785 10.9771 67.9565 12.1511C68.1718 12.6818 68.2905 13.2905 68.2905 13.9371C68.2905 14.5825 68.1725 15.1905 67.9565 15.7218Z" fill="#009FF7"/>
<path d="M78.9664 8.08789C77.5697 8.08789 76.4464 8.79789 75.6391 9.84322V8.27256H73.2051V19.6026H75.6391V15.5232C75.7017 12.0546 76.5957 10.1452 78.6724 10.1452C79.8477 10.1452 81.0237 10.6966 81.0237 13.0839C81.0237 13.0879 81.0237 13.0912 81.0237 13.0952V19.6012H83.4731V13.1932H83.4724C83.4371 9.55189 81.2017 8.08789 78.9664 8.08789Z" fill="#009FF7"/>
<path d="M52.976 8.08997C51.586 8.08997 50.584 8.5973 49.892 9.4213V3.66797H47.458V19.6026H49.7413V18.2186C50.4327 19.0853 51.586 19.8233 52.9767 19.8233C55.902 19.8233 58.0767 17.2726 58.0767 14.0053C58.0767 10.738 55.9013 8.08997 52.976 8.08997ZM52.5267 17.6986C51.3233 17.6986 50.3707 16.9013 49.8927 15.7273C49.6773 15.1966 49.5587 14.588 49.5587 13.9413C49.5587 13.2946 49.6773 12.6866 49.8927 12.1553C50.3707 10.982 51.324 10.184 52.5267 10.184C54.2747 10.184 55.594 11.866 55.594 13.9406C55.594 16.0153 54.274 17.6986 52.5267 17.6986Z" fill="#009FF7"/>
<path d="M9.14933 0.212556L0.836 8.51856C0.300667 9.05322 0 9.77855 0 10.5359V39.2772C0 39.9199 0.776667 40.2419 1.23067 39.7872L9.54333 31.4812C10.0787 30.9466 10.3793 30.2206 10.3793 29.4632V0.722556C10.38 0.0798894 9.60333 -0.241444 9.14933 0.212556Z" fill="#009FF7"/>
<path d="M25.3731 26.6491C24.9137 26.3751 24.3877 26.2378 23.7957 26.2378C23.3184 26.2378 22.9124 26.3265 22.5764 26.5031C22.2404 26.6798 21.9711 26.8965 21.7677 27.1525H21.7017V24.0645H20.1777V33.3418H21.4631L21.6351 32.4931H21.7011C21.9304 32.7938 22.2224 33.0318 22.5757 33.2091C22.9291 33.3858 23.3357 33.4745 23.7951 33.4745C24.3784 33.4745 24.9037 33.3331 25.3724 33.0505C25.8317 32.7678 26.1851 32.3571 26.4331 31.8178C26.6891 31.2611 26.8171 30.6071 26.8171 29.8565C26.8171 29.0965 26.6891 28.4385 26.4331 27.8818C26.1857 27.3425 25.8324 26.9318 25.3731 26.6491ZM24.8031 31.5258C24.4764 31.9058 24.0384 32.0958 23.4911 32.0958C22.9611 32.0958 22.5324 31.9058 22.2057 31.5258C21.8697 31.1371 21.7017 30.5805 21.7017 29.8558C21.7017 29.1311 21.8697 28.5751 22.2057 28.1858C22.5324 27.8058 22.9611 27.6158 23.4911 27.6158C24.0391 27.6158 24.4764 27.8058 24.8031 28.1858C25.1297 28.5658 25.2931 29.1225 25.2931 29.8558C25.2937 30.5898 25.1297 31.1465 24.8031 31.5258Z" fill="#797D85"/>
<path d="M28.8089 23.5078C28.5435 23.5078 28.3229 23.5965 28.1462 23.7731C27.9695 23.9678 27.8809 24.1885 27.8809 24.4358C27.8809 24.6925 27.9735 24.9091 28.1589 25.0851C28.3355 25.2618 28.5522 25.3505 28.8082 25.3505C29.0642 25.3505 29.2809 25.2625 29.4575 25.0851C29.6342 24.9085 29.7229 24.6918 29.7229 24.4358C29.7229 24.1885 29.6342 23.9678 29.4575 23.7731C29.2815 23.5965 29.0649 23.5078 28.8089 23.5078Z" fill="#797D85"/>
<path d="M29.565 26.3706H28.041V33.3413H29.565V26.3706Z" fill="#797D85"/>
<path d="M35.9923 27.5366V26.3706H30.7176V27.7486H34.097L30.585 32.1753V33.3419H36.0583V31.9633H32.467L35.9923 27.5366Z" fill="#797D85"/>
<path d="M41.9731 26.5701C41.5931 26.3494 41.1471 26.2388 40.6345 26.2388C40.2545 26.2388 39.8965 26.3188 39.5611 26.4774C39.2165 26.6541 38.9385 26.9014 38.7265 27.2194H38.6605L38.4885 26.3714H37.2031V33.3421H38.7271V29.2201C38.7271 28.7521 38.8731 28.3674 39.1645 28.0674C39.4385 27.7668 39.8005 27.6168 40.2511 27.6168C40.6925 27.6168 41.0465 27.7581 41.3111 28.0408C41.5671 28.3234 41.6951 28.7168 41.6951 29.2201V33.3421H43.2191V29.0614C43.2191 28.4874 43.1085 27.9834 42.8878 27.5508C42.6578 27.1174 42.3531 26.7908 41.9731 26.5701Z" fill="#797D85"/>
<path d="M49.467 26.7018C48.9723 26.3925 48.389 26.2378 47.7176 26.2378C47.055 26.2378 46.4763 26.3791 45.9816 26.6618C45.4863 26.9358 45.0983 27.3465 44.815 27.8938C44.541 28.4331 44.4043 29.0865 44.4043 29.8558C44.4043 30.9865 44.7043 31.8751 45.3056 32.5191C45.9063 33.1551 46.719 33.4738 47.7443 33.4738C48.5743 33.4738 49.2463 33.2751 49.759 32.8771C50.289 32.4711 50.651 31.9498 50.8456 31.3138H49.2156C49.039 31.5965 48.8443 31.7998 48.6323 31.9231C48.4116 32.0645 48.1156 32.1351 47.7443 32.1351C47.2403 32.1351 46.8343 31.9805 46.525 31.6711C46.2156 31.3618 46.0303 30.9205 45.9683 30.3458H50.9383C50.9823 30.0985 51.0043 29.8645 51.0043 29.6438C51.0043 29.0165 50.8716 28.4465 50.6063 27.9338C50.3416 27.4225 49.9616 27.0111 49.467 26.7018ZM45.9683 29.1805C46.0476 28.6858 46.2416 28.2925 46.5516 28.0011C46.861 27.7185 47.2496 27.5771 47.7183 27.5771C48.2303 27.5771 48.6416 27.7318 48.951 28.0411C49.2423 28.3505 49.4236 28.7305 49.4943 29.1805H45.9683Z" fill="#797D85"/>
<path d="M56.3897 29.551C56.045 29.4277 55.6077 29.3083 55.0777 29.193C54.5563 29.0697 54.1763 28.9503 53.9377 28.835C53.6903 28.7203 53.5663 28.535 53.5663 28.2783C53.5663 28.0663 53.6637 27.8937 53.8577 27.761C54.061 27.6377 54.339 27.5757 54.6923 27.5757C55.0457 27.5757 55.3237 27.6377 55.527 27.761C55.7123 27.8757 55.8403 28.035 55.911 28.2383H57.541C57.4263 27.6023 57.117 27.1077 56.613 26.7537C56.1097 26.409 55.469 26.2363 54.6917 26.2363C54.153 26.2363 53.671 26.325 53.247 26.5017C52.8497 26.6783 52.5403 26.9257 52.319 27.2437C52.107 27.5443 52.001 27.8883 52.001 28.2777C52.001 28.7903 52.1243 29.1877 52.3723 29.4703C52.6197 29.771 52.9203 29.9877 53.2737 30.1197C53.5917 30.2437 54.029 30.367 54.5857 30.491C55.0977 30.597 55.4737 30.7077 55.7123 30.8223C55.951 30.937 56.0703 31.1183 56.0703 31.3657C56.0703 31.5863 55.9597 31.7677 55.739 31.909C55.509 32.0597 55.1603 32.1343 54.6923 32.1343C54.3563 32.1343 54.0737 32.0597 53.8443 31.909C53.6143 31.7677 53.4643 31.569 53.3937 31.313H51.7637C51.8877 31.9843 52.2057 32.5143 52.7183 32.903C53.213 33.283 53.871 33.473 54.693 33.473C55.6297 33.473 56.3537 33.283 56.8663 32.903C57.3783 32.5237 57.635 32.011 57.635 31.3657C57.635 30.8617 57.511 30.469 57.2637 30.1863C57.017 29.8957 56.7257 29.6837 56.3897 29.551Z" fill="#797D85"/>
</svg>
