<?xml version="1.0" encoding="UTF-8"?><svg id="a" xmlns="http://www.w3.org/2000/svg" width="500" height="218" viewBox="0 0 500 218"><defs><style>.i{fill:#233643;}</style></defs><path class="i" d="m499.1503,180.1406l-249,37.848c-.0996.0151-.2009.0151-.3005,0L.8497,180.1406c-.4886-.0743-.8497-.4944-.8497-.9886v-12.977c0-.6122.5451-1.0806,1.1503-.9886l248.6995,37.8023c.0996.0151.2009.0151.3005,0l248.6995-37.8023c.6052-.092,1.1503.3765,1.1503.9886v12.977c0,.4943-.3611.9144-.8497.9886Z"/><path id="b" class="i" d="m500,144v-13c0-.5523-.4477-1-1-1h-32c-.5523,0-1-.4477-1-1v-55c0-.5523-.4477-1-1-1h-15c-.5523,0-1,.4477-1,1v69.9997c0,.5523.4477,1,1,1l49,.0003c.5523,0,1-.4477,1-1Z"/><path id="c" class="i" d="m408.4959,132.7255l3.297,11.549c.1226.4294.515.7255.9616.7255h15.8212c.693,0,1.1759-.6878.9406-1.3396l-25.2778-70c-.1431-.3963-.5192-.6604-.9406-.6604h-17.5958c-.4213,0-.7975.2641-.9406.6604l-25.2778,70c-.2354.6518.2475,1.3396.9406,1.3396h15.8213c.4465,0,.8389-.296.9615-.7253l3.2991-11.5493c.1226-.4293.515-.7253.9615-.7253h26.0664c.4466,0,.839.2961.9616.7255Zm-5.8892-14.7255h-16.2133c-.6843,0-1.1664-.6718-.9474-1.3201l8.1067-23.997c.3063-.9066,1.5885-.9066,1.8948,0l8.1067,23.997c.219.6483-.2631,1.3201-.9474,1.3201Z"/><path id="d" class="i" d="m316,88c.5523,0,1,.4477,1,1v55c0,.5523.4477,1,1,1h15c.5523,0,1-.4477,1-1v-55c0-.5523.4477-1,1-1h17c.5523,0,1-.4477,1-1v-13c0-.5523-.4477-1-1-1h-53c-.5523,0-1,.4477-1,1v13c0,.5523.4477,1,1,1h17Z"/><path id="e" class="i" d="m248.3424,92.4455v-.1057c0-2.8867,2.42-5.8008,7.8252-5.8008,5.2975,0,11.1694,2.0956,16.6886,5.9309.3264.2278.7738.1525,1.0005-.1739l7.8923-11.4094c.2227-.3213.1505-.7656-.1637-.9965-7.1328-5.2375-15.3251-7.7876-24.9886-7.7876-15.4878,0-25.8936,8.7678-25.8936,21.8193v.3162c0,12.1232,8.2635,17.1868,23.5123,22.2901,9.086,3.1541,11.7104,5.1063,11.7104,8.7047v.1047c0,3.0595-2.3102,6.3295-8.7922,6.3295-6.4881,0-13.0922-2.5155-19.6495-7.4815-.3182-.241-.7717-.184-1.0107.1363l-8.3296,11.1593c-.2328.3132-.1779.7606.1281,1.0015,7.9818,6.3,17.8874,9.6199,28.7548,9.6199,16.0561,0,26.4304-8.7292,26.4304-22.2403v-.2105c0-12.2117-9.0067-17.5722-22.5311-21.8641-9.2965-3.3839-12.5838-5.2995-12.5838-9.3423"/><path id="f" class="i" d="m180,88c.5523,0,1,.4477,1,1v55c0,.5523.4477,1,1,1h15c.5523,0,1-.4477,1-1v-55c0-.5523.4477-1,1-1h17c.5523,0,1-.4477,1-1v-13c0-.5523-.4477-1-1-1h-53c-.5523,0-1,.4477-1,1v13c0,.5523.4477,1,1,1h17Z"/><path id="g" class="i" d="m137,115v-12c0-.5523-.4477-1-1-1h-24c-.5523,0-1-.4477-1-1v-12c0-.5523.4477-1,1-1h32c.5523,0,1-.4477,1-1v-13c0-.5523-.4477-1-1-1h-49c-.5523,0-1,.4477-1,1v70c0,.5523.4477,1,1,1h49c.5523,0,1-.4477,1-1v-13c0-.5523-.4477-1-1-1h-32c-.5523,0-1-.4477-1-1v-12c0-.5523.4477-1,1-1h24c.5523,0,1-.4477,1-1Z"/><path id="h" class="i" d="m50,114v-40c0-.5523.4477-1,1-1h15c.5523,0,1,.4477,1,1v70c0,.5523-.4477,1-1,1h-15.5069c-.3109,0-.604-.1446-.7933-.3912l-30.9065-40.2721c-.5817-.7579-1.7933-.3466-1.7933.6088v39.0544c0,.5523-.4477,1-1,1H1c-.5523,0-1-.4477-1-1v-70c0-.5523.4477-1,1-1h15.5c.3148,0,.6111.1482.8.4l30.9,41.2c.5766.7688,1.8.361,1.8-.6Z"/><path class="i" d="m.8497,37.8594L249.8497.0114c.0996-.0151.2009-.0151.3005,0l249,37.848c.4886.0743.8497.4944.8497.9886v12.977c0,.6122-.5451,1.0806-1.1503.9886L250.1503,15.0114c-.0996-.0151-.2009-.0151-.3005,0L1.1503,52.8137c-.6052.092-1.1503-.3765-1.1503-.9886v-12.977c0-.4943.3611-.9144.8497-.9886Z"/></svg>